<?xml version="1.0" standalone="no"?>
<!DOCTYPE svg PUBLIC "-//W3C//DTD SVG 20010904//EN"
 "http://www.w3.org/TR/2001/REC-SVG-20010904/DTD/svg10.dtd">
<svg version="1.0" xmlns="http://www.w3.org/2000/svg"
 width="215.000000pt" height="215.000000pt" viewBox="0 0 215.000000 215.000000"
 preserveAspectRatio="xMidYMid meet">
<metadata>
Created by potrace 1.11, written by Peter Selinger 2001-2013
</metadata>
<g transform="translate(0.000000,215.000000) scale(0.100000,-0.100000)"
fill="#000000" stroke="none">
<path d="M932 2140 c-110 -20 -225 -68 -327 -136 -68 -45 -189 -173 -234 -247
-160 -269 -152 -622 21 -874 115 -167 270 -279 464 -335 113 -32 315 -33 427
0 228 65 416 221 522 431 100 200 102 483 5 697 -96 212 -303 385 -535 448
-72 20 -269 29 -343 16z m354 -69 c250 -69 457 -284 525 -546 27 -103 28 -260
4 -365 -19 -82 -77 -215 -119 -270 -98 -130 -234 -230 -381 -280 -96 -33 -106
-34 -245 -34 -139 0 -149 1 -245 34 -117 40 -213 101 -302 192 -76 76 -105
118 -149 214 -49 104 -67 191 -67 319 0 136 19 220 78 340 84 172 251 324 417
380 147 51 336 57 484 16z"/>
<path d="M915 2036 c-164 -37 -299 -123 -408 -259 -103 -128 -151 -269 -150
-442 1 -226 83 -404 255 -551 70 -60 136 -96 233 -130 73 -26 92 -28 225 -28
133 0 152 2 225 28 179 62 315 177 407 345 108 194 109 468 3 669 -87 166
-242 294 -425 353 -84 27 -277 35 -365 15z"/>
<path d="M943 393 c-32 -6 -37 -36 -30 -191 7 -148 18 -182 63 -182 24 0 47
30 28 37 -38 14 -39 18 -36 183 2 88 2 159 0 159 -1 -1 -13 -4 -25 -6z"/>
<path d="M709 333 c-7 -15 -17 -41 -24 -58 -7 -16 -23 -61 -35 -100 -12 -38
-26 -80 -31 -93 -16 -41 -11 -64 12 -60 16 2 26 16 36 48 l14 45 56 -2 c30 -1
57 -4 60 -7 3 -2 11 -21 18 -42 10 -31 18 -38 45 -41 40 -4 40 -7 -15 147 -63
172 -69 185 -97 188 -23 3 -30 -2 -39 -25z m56 -126 l15 -37 -34 0 -34 0 15
40 c9 22 18 39 19 37 2 -2 10 -20 19 -40z"/>
<path d="M1290 270 c-16 -10 -6 -35 32 -83 l22 -28 -32 -58 c-18 -32 -32 -64
-32 -70 0 -6 14 -11 31 -11 27 0 33 5 52 50 l21 50 25 -48 c22 -39 31 -48 59
-50 41 -4 40 6 -3 71 -19 28 -35 59 -35 67 1 8 14 31 30 50 34 39 37 55 14 64
-34 13 -50 6 -63 -29 -15 -42 -20 -43 -52 -9 -32 34 -52 44 -69 34z"/>
<path d="M1098 258 c-21 -7 -31 -21 -44 -63 -17 -52 -17 -56 1 -95 25 -55 49
-70 110 -70 68 0 97 9 93 29 -3 12 -15 16 -53 16 -53 0 -95 11 -95 25 0 5 -3
15 -6 24 -5 14 5 16 69 16 84 0 104 12 93 56 -11 43 -53 74 -100 73 -23 0 -53
-5 -68 -11z"/>
</g>
</svg>
